<?xml version="1.0" encoding="UTF-8"?>
<svg xmlns="http://www.w3.org/2000/svg" xmlns:xlink="http://www.w3.org/1999/xlink" viewBox="0 0 401.61 372.39">
  <defs>
    <style>
      .cls-1 {
        fill: url(#linear-gradient-2);
      }

      .cls-2 {
        fill: url(#linear-gradient-6);
      }

      .cls-3 {
        fill: url(#linear-gradient-5);
      }

      .cls-4 {
        fill: url(#linear-gradient-3);
      }

      .cls-5 {
        fill: url(#linear-gradient);
      }

      .cls-6 {
        fill: url(#linear-gradient-4);
      }
    </style>
    <linearGradient id="linear-gradient" x1="325.06" y1="34.4" x2="101.16" y2="258.3" gradientUnits="userSpaceOnUse">
      <stop offset="0" stop-color="#fff"/>
      <stop offset=".22" stop-color="#fcfcfc" stop-opacity="1"/>
      <stop offset=".4" stop-color="#f3f3f3" stop-opacity=".99"/>
      <stop offset=".57" stop-color="#e4e4e4" stop-opacity=".97"/>
      <stop offset=".72" stop-color="#d0d0d0" stop-opacity=".95"/>
      <stop offset=".87" stop-color="#b5b5b5" stop-opacity=".93"/>
      <stop offset="1" stop-color="#999" stop-opacity=".9"/>
    </linearGradient>
    <linearGradient id="linear-gradient-2" x1="196.22" y1="102.89" x2="49.99" y2="249.11" xlink:href="#linear-gradient"/>
    <linearGradient id="linear-gradient-3" x1="200.48" y1="372.39" x2="200.48" y2="265.98" gradientUnits="userSpaceOnUse">
      <stop offset="0" stop-color="#ffaf40"/>
      <stop offset=".53" stop-color="#ffd01f"/>
      <stop offset="1" stop-color="#fff200"/>
    </linearGradient>
    <linearGradient id="linear-gradient-4" x1="320.52" y1="85.81" x2="213.54" y2="192.78" gradientUnits="userSpaceOnUse">
      <stop offset="0" stop-color="#2ed573"/>
      <stop offset=".49" stop-color="#30d574" stop-opacity="1"/>
      <stop offset=".67" stop-color="#38d878" stop-opacity=".99"/>
      <stop offset=".79" stop-color="#46dc80" stop-opacity=".97"/>
      <stop offset=".9" stop-color="#5ae28c" stop-opacity=".94"/>
      <stop offset=".98" stop-color="#74ea9b" stop-opacity=".91"/>
      <stop offset="1" stop-color="#7bed9f" stop-opacity=".9"/>
    </linearGradient>
    <linearGradient id="linear-gradient-5" x1="379.34" y1="-1393.59" x2="279.43" y2="-1293.67" gradientTransform="translate(0 -1126.92) scale(1 -1)" xlink:href="#linear-gradient-4"/>
    <linearGradient id="linear-gradient-6" x1="217.28" y1="179.28" x2="173.86" y2="222.7" xlink:href="#linear-gradient-4"/>
  </defs>
  <g id="Layer_8" data-name="Layer 8">
    <path class="cls-5" d="M316.14,60.88h-1.95c-10.85,0-20.6-6.18-25.72-15.75C274.06,18.27,245.73,0,213.11,0h0c-32.44,0-60.64,18.07-75.12,44.7-5.48,10.07-16.18,16.19-27.65,16.19h-.27c-47.2,0-85.47,38.27-85.47,85.47h0c0,47.2,38.27,85.47,85.47,85.47h206.06c47.2,0,85.47-38.27,85.47-85.47h0c0-47.2-38.27-85.47-85.47-85.47Z"/>
  </g>
  <g id="Layer_6" data-name="Layer 6">
    <path class="cls-1" d="M190.4,120.18h-1.27c-7.09,0-13.45-4.04-16.8-10.28-9.41-17.54-27.91-29.48-49.21-29.48h0c-21.18,0-39.6,11.8-49.06,29.19-3.58,6.58-10.57,10.57-18.06,10.57h-.17C24.99,120.18,0,145.17,0,176H0c0,30.83,24.99,55.82,55.82,55.82H190.4c30.83,0,55.82-24.99,55.82-55.82h0c0-30.83-24.99-55.82-55.82-55.82Z"/>
  </g>
  <g id="Layer_5" data-name="Layer 5">
    <path class="cls-4" d="M200.3,266.06c-.48-.33-1.52,.43-1.7,.72-18.23,29.62-30.35,49.32-30.69,49.86-.01,.02-.36,.57-.79,1.3-.04,.07-.07,.12-.08,.14-.15,.27-.35,.72-.39,1.29-.01,.2-.05,.97,.39,1.67h0c.13,.26,.35,.62,.71,.95,0,0,.35,.32,.81,.53,1.67,.78,26.08-.17,27.74,0,.8,.08,1.41,.46,1.41,.46,.26,.16,.52,.38,.77,.67,.9,1.09,.84,2.39,.82,2.62-3.99,13.49-7.98,26.98-11.96,40.47-.68,2.68-.59,5.05,.26,5.53,.93,.53,3.08-1.05,4.85-4.29,4.86-6.29,41.69-54.1,41.86-57.85,.07-1.5-.54-2.6-.54-2.6-.71-1.28-1.95-1.91-2.74-2.22-11.82-.34-23.63-.69-35.45-1.03-.35,0-.79-.07-1.08-.4,0,0,0,0,0,0-.37,0-.31-.98-.3-1.2,.05-1.61,8.53-34.94,6.1-36.63Z"/>
  </g>
  <g id="Layer_4" data-name="Layer 4">
    <path class="cls-6" d="M295.36,166.74h-103.53c-5.76,0-10.42-4.67-10.42-10.42s4.67-10.42,10.42-10.42h103.3c12.43-.61,22.5-11.17,22.5-23.63s-10.18-23.13-22.7-23.64c-5.75-.23-10.22-5.09-9.99-10.84,.24-5.75,5.09-10.24,10.84-9.99,23.94,.98,42.69,20.51,42.69,44.47s-18.75,43.49-42.69,44.47c-.14,0-.28,0-.42,0Z"/>
  </g>
  <g id="Layer_3" data-name="Layer 3">
    <path class="cls-3" d="M355.54,274.31c-5.56,0-10.18-4.39-10.41-10-.24-5.75,4.24-10.6,9.99-10.84,11.13-.45,20.19-9.89,20.19-21.04s-8.95-20.47-20-21.03h-95.37c-5.76,0-10.42-4.67-10.42-10.42s4.67-10.42,10.42-10.42h95.61c.14,0,.28,0,.42,0,22.54,.92,40.19,19.31,40.19,41.86s-17.65,40.94-40.19,41.86c-.15,0-.29,0-.43,0Z"/>
  </g>
  <g id="Layer_2" data-name="Layer 2">
    <path class="cls-2" d="M224.25,211.41h-57.36c-5.76,0-10.42-4.67-10.42-10.42s4.67-10.42,10.42-10.42h57.36c5.76,0,10.42,4.67,10.42,10.42s-4.67,10.42-10.42,10.42Z"/>
  </g>
</svg>