<?xml version="1.0" encoding="UTF-8"?>
<svg xmlns="http://www.w3.org/2000/svg" xmlns:xlink="http://www.w3.org/1999/xlink" viewBox="0 0 401.61 372.51">
  <defs>
    <style>
      .cls-1 {
        fill: url(#linear-gradient-2);
      }

      .cls-2 {
        fill: url(#linear-gradient-5);
      }

      .cls-3 {
        fill: url(#linear-gradient-3);
      }

      .cls-4 {
        fill: url(#linear-gradient);
      }

      .cls-5 {
        fill: url(#linear-gradient-4);
      }
    </style>
    <linearGradient id="linear-gradient" x1="113.25" y1="326.34" x2="113.25" y2="290.08" gradientUnits="userSpaceOnUse">
      <stop offset="0" stop-color="#22a6b3"/>
      <stop offset=".26" stop-color="#35b0bc"/>
      <stop offset=".8" stop-color="#68cbd4"/>
      <stop offset="1" stop-color="#7ed6df"/>
    </linearGradient>
    <linearGradient id="linear-gradient-2" x1="283.47" y1="326.55" x2="283.47" y2="290.29" xlink:href="#linear-gradient"/>
    <linearGradient id="linear-gradient-3" x1="200.4" y1="372.51" x2="200.4" y2="266.11" gradientUnits="userSpaceOnUse">
      <stop offset="0" stop-color="#ffaf40"/>
      <stop offset=".53" stop-color="#ffd01f"/>
      <stop offset="1" stop-color="#fff200"/>
    </linearGradient>
    <linearGradient id="linear-gradient-4" x1="325.06" y1="34.4" x2="101.16" y2="258.3" gradientUnits="userSpaceOnUse">
      <stop offset="0" stop-color="#fff"/>
      <stop offset=".22" stop-color="#fcfcfc" stop-opacity="1"/>
      <stop offset=".4" stop-color="#f3f3f3" stop-opacity=".99"/>
      <stop offset=".57" stop-color="#e4e4e4" stop-opacity=".97"/>
      <stop offset=".72" stop-color="#d0d0d0" stop-opacity=".95"/>
      <stop offset=".87" stop-color="#b5b5b5" stop-opacity=".93"/>
      <stop offset="1" stop-color="#999" stop-opacity=".9"/>
    </linearGradient>
    <linearGradient id="linear-gradient-5" x1="196.22" y1="102.89" x2="49.99" y2="249.11" xlink:href="#linear-gradient-4"/>
  </defs>
  <g id="Layer_15" data-name="Layer 15">
    <path class="cls-4" d="M124.94,318.59c.5-1.41,.7-2.88,.63-4.33,0-3.12-.14-6.47-.44-10.01-.45-5.2-1.2-9.95-2.08-14.16-3.15,2.01-6.62,4.49-10.21,7.53-3.61,3.05-6.64,6.07-9.15,8.84l.05,.02c-.73,.83-1.35,1.76-1.83,2.79-2.85,6.23,.66,13.67,6.85,16.17,6.16,2.5,13.87-.35,16.17-6.85Z"/>
  </g>
  <g id="Layer_14" data-name="Layer 14">
    <path class="cls-1" d="M295.16,318.8c.5-1.41,.7-2.88,.63-4.33,0-3.12-.14-6.47-.44-10.01-.45-5.2-1.2-9.95-2.08-14.16-3.15,2.01-6.62,4.49-10.21,7.53-3.61,3.05-6.64,6.07-9.15,8.84l.05,.02c-.73,.83-1.35,1.76-1.83,2.79-2.85,6.23,.66,13.67,6.85,16.17,6.16,2.5,13.87-.35,16.17-6.85Z"/>
  </g>
  <g id="Layer_13" data-name="Layer 13">
    <path class="cls-3" d="M200.23,266.19c-.48-.33-1.52,.43-1.7,.72-18.23,29.62-30.35,49.32-30.69,49.86-.01,.02-.36,.57-.79,1.3-.04,.07-.07,.12-.08,.14-.15,.27-.35,.72-.39,1.29-.01,.2-.05,.97,.39,1.67h0c.13,.26,.35,.62,.71,.95,0,0,.35,.32,.81,.53,1.67,.78,26.08-.17,27.74,0,.8,.08,1.41,.46,1.41,.46,.26,.16,.52,.38,.77,.67,.9,1.09,.84,2.39,.82,2.62-3.99,13.49-7.98,26.98-11.96,40.47-.68,2.68-.59,5.05,.26,5.53,.93,.53,3.08-1.05,4.85-4.29,4.86-6.29,41.69-54.1,41.86-57.85,.07-1.5-.54-2.6-.54-2.6-.71-1.28-1.95-1.91-2.74-2.22-11.82-.34-23.63-.69-35.45-1.03-.35,0-.79-.07-1.08-.4,0,0,0,0,0,0-.37,0-.31-.98-.3-1.2,.05-1.61,8.53-34.94,6.1-36.63Z"/>
  </g>
  <g id="Layer_12" data-name="Layer 12">
    <path class="cls-5" d="M316.14,60.88h-1.95c-10.85,0-20.6-6.18-25.72-15.75C274.06,18.27,245.73,0,213.11,0h0c-32.44,0-60.64,18.07-75.12,44.7-5.48,10.07-16.18,16.19-27.65,16.19h-.27c-47.2,0-85.47,38.27-85.47,85.47h0c0,47.2,38.27,85.47,85.47,85.47h206.06c47.2,0,85.47-38.27,85.47-85.47h0c0-47.2-38.27-85.47-85.47-85.47Z"/>
  </g>
  <g id="Layer_6" data-name="Layer 6">
    <path class="cls-2" d="M190.4,120.18h-1.27c-7.09,0-13.45-4.04-16.8-10.28-9.41-17.54-27.91-29.48-49.21-29.48h0c-21.18,0-39.6,11.8-49.06,29.19-3.58,6.58-10.57,10.57-18.06,10.57h-.17C24.99,120.18,0,145.17,0,176H0c0,30.83,24.99,55.82,55.82,55.82H190.4c30.83,0,55.82-24.99,55.82-55.82h0c0-30.83-24.99-55.82-55.82-55.82Z"/>
  </g>
</svg>