<?xml version="1.0" encoding="UTF-8"?>
<svg xmlns="http://www.w3.org/2000/svg" xmlns:xlink="http://www.w3.org/1999/xlink" viewBox="0 0 401.61 273.81">
  <defs>
    <style>
      .cls-1 {
        fill: url(#linear-gradient-2);
      }

      .cls-2 {
        fill: url(#linear-gradient-5);
      }

      .cls-3 {
        fill: url(#linear-gradient-3);
      }

      .cls-4 {
        fill: url(#linear-gradient);
      }

      .cls-5 {
        fill: url(#linear-gradient-4);
      }
    </style>
    <linearGradient id="linear-gradient" x1="325.06" y1="34.4" x2="101.16" y2="258.3" gradientUnits="userSpaceOnUse">
      <stop offset="0" stop-color="#fff"/>
      <stop offset=".22" stop-color="#fcfcfc" stop-opacity="1"/>
      <stop offset=".4" stop-color="#f3f3f3" stop-opacity=".99"/>
      <stop offset=".57" stop-color="#e4e4e4" stop-opacity=".97"/>
      <stop offset=".72" stop-color="#d0d0d0" stop-opacity=".95"/>
      <stop offset=".87" stop-color="#b5b5b5" stop-opacity=".93"/>
      <stop offset="1" stop-color="#999" stop-opacity=".9"/>
    </linearGradient>
    <linearGradient id="linear-gradient-2" x1="196.22" y1="102.89" x2="49.99" y2="249.11" xlink:href="#linear-gradient"/>
    <linearGradient id="linear-gradient-3" x1="318.25" y1="85.31" x2="211.28" y2="192.28" gradientUnits="userSpaceOnUse">
      <stop offset="0" stop-color="#2ed573"/>
      <stop offset=".49" stop-color="#30d574" stop-opacity="1"/>
      <stop offset=".67" stop-color="#38d878" stop-opacity=".99"/>
      <stop offset=".79" stop-color="#46dc80" stop-opacity=".97"/>
      <stop offset=".9" stop-color="#5ae28c" stop-opacity=".94"/>
      <stop offset=".98" stop-color="#74ea9b" stop-opacity=".91"/>
      <stop offset="1" stop-color="#7bed9f" stop-opacity=".9"/>
    </linearGradient>
    <linearGradient id="linear-gradient-4" x1="377.08" y1="-1495.18" x2="277.16" y2="-1395.26" gradientTransform="translate(0 -1229) scale(1 -1)" xlink:href="#linear-gradient-3"/>
    <linearGradient id="linear-gradient-5" x1="215.02" y1="178.78" x2="171.6" y2="222.2" xlink:href="#linear-gradient-3"/>
  </defs>
  <g id="Layer_16" data-name="Layer 16">
    <path class="cls-4" d="M316.14,60.88h-1.95c-10.85,0-20.6-6.18-25.72-15.75C274.06,18.27,245.73,0,213.11,0h0c-32.44,0-60.64,18.07-75.12,44.7-5.48,10.07-16.18,16.19-27.65,16.19h-.27c-47.2,0-85.47,38.27-85.47,85.47h0c0,47.2,38.27,85.47,85.47,85.47h206.06c47.2,0,85.47-38.27,85.47-85.47h0c0-47.2-38.27-85.47-85.47-85.47Z"/>
  </g>
  <g id="Layer_15" data-name="Layer 15">
    <path class="cls-1" d="M190.4,120.18h-1.27c-7.09,0-13.45-4.04-16.8-10.28-9.41-17.54-27.91-29.48-49.21-29.48h0c-21.18,0-39.6,11.8-49.06,29.19-3.58,6.58-10.57,10.57-18.06,10.57h-.17C24.99,120.18,0,145.17,0,176H0c0,30.83,24.99,55.82,55.82,55.82H190.4c30.83,0,55.82-24.99,55.82-55.82h0c0-30.83-24.99-55.82-55.82-55.82Z"/>
  </g>
  <g id="Layer_14" data-name="Layer 14">
    <path class="cls-3" d="M293.09,166.25h-103.53c-5.76,0-10.42-4.67-10.42-10.42s4.67-10.42,10.42-10.42h103.3c12.43-.61,22.5-11.17,22.5-23.63s-10.18-23.13-22.7-23.64c-5.75-.23-10.22-5.09-9.99-10.84,.24-5.75,5.09-10.24,10.84-9.99,23.94,.98,42.69,20.51,42.69,44.47s-18.75,43.49-42.69,44.47c-.14,0-.28,0-.42,0Z"/>
  </g>
  <g id="Layer_13" data-name="Layer 13">
    <path class="cls-5" d="M353.27,273.81c-5.56,0-10.18-4.39-10.41-10-.24-5.75,4.24-10.6,9.99-10.84,11.13-.45,20.19-9.89,20.19-21.04s-8.95-20.47-20-21.03h-95.37c-5.76,0-10.42-4.67-10.42-10.42s4.67-10.42,10.42-10.42h95.61c.14,0,.28,0,.42,0,22.54,.92,40.19,19.31,40.19,41.86s-17.65,40.94-40.19,41.86c-.15,0-.29,0-.43,0Z"/>
  </g>
  <g id="Layer_12" data-name="Layer 12">
    <path class="cls-2" d="M221.98,210.92h-57.36c-5.76,0-10.42-4.67-10.42-10.42s4.67-10.42,10.42-10.42h57.36c5.76,0,10.42,4.67,10.42,10.42s-4.67,10.42-10.42,10.42Z"/>
  </g>
</svg>