<?xml version="1.0" encoding="utf-8"?>
<!-- Generator: Adobe Illustrator 21.0.0, SVG Export Plug-In . SVG Version: 6.00 Build 0)  -->
<svg version="1.1" id="Layer_1" xmlns="http://www.w3.org/2000/svg" xmlns:xlink="http://www.w3.org/1999/xlink" x="0px" y="0px"
	 viewBox="0 0 512 512" style="enable-background:new 0 0 512 512;" xml:space="preserve">
<style type="text/css">
	.st0{fill:#FFFFFF;}
	.st1{fill:none;stroke:#FFFFFF;stroke-width:18;stroke-linecap:round;stroke-linejoin:round;}
</style>
<title>003 Blizzard</title>
<path class="st0" d="M348.3,134.1h-1.6c-19.5-57.9-82.2-88.9-140.1-69.4c-45,15.2-75.2,57.3-75.2,104.7c0,2.3,0.1,4.7,0.2,7
	c-33.7,9.5-57,40.1-57.1,75.1c0.1,43,35,77.9,78,78h195.9c53.7,0,97.7-44,97.7-97.7C446,178,402,134.1,348.3,134.1z M345.8,253
	c-1.6,3.1-4.7,4.9-8,4.9c-1.4,0-2.8-0.3-4.1-1l-16.5-8.4l3,9.4c1.5,4.7-1.1,9.8-5.8,11.3c-0.9,0.3-1.9,0.4-2.8,0.4
	c-3.8,0-7.3-2.4-8.6-6.2l-8.6-26.5l-26.2-13.3V253l19.7,19.7c3.5,3.5,3.5,9.2,0,12.7s-9.2,3.5-12.7,0l-6.9-6.9V297c0,5-4,9-9,9
	s-9-4-9-9v-18.5l-6.9,6.9c-1.8,1.8-4.1,2.6-6.4,2.6c-2.3,0-4.6-0.9-6.4-2.6c-3.5-3.5-3.5-9.2,0-12.7l19.7-19.7v-29.4l-26.2,13.3
	l-8.6,26.5c-1.2,3.8-4.8,6.2-8.6,6.2c-0.9,0-1.9-0.1-2.8-0.4c-4.7-1.5-7.3-6.6-5.8-11.3l3-9.4l-16.5,8.4c-1.3,0.7-2.7,1-4.1,1
	c-3.3,0-6.4-1.8-8-4.9c-2.3-4.4-0.5-9.8,3.9-12.1l16.5-8.4l-9.3-3c-4.7-1.5-7.3-6.6-5.8-11.3s6.6-7.3,11.3-5.8l26.5,8.6l23.5-12
	l-23.5-12l-26.4,8.6c-0.9,0.3-1.9,0.4-2.8,0.4c-3.8,0-7.3-2.4-8.6-6.2c-1.5-4.7,1.1-9.8,5.8-11.3l9.3-3l-16.5-8.4
	c-4.4-2.3-6.2-7.7-3.9-12.1c2.3-4.4,7.7-6.2,12.1-3.9l16.5,8.4l-3-9.3c-1.5-4.7,1.1-9.8,5.8-11.3s9.8,1.1,11.3,5.8l8.6,26.5
	l26.2,13.3v-29.4l-19.7-19.7c-3.5-3.5-3.5-9.2,0-12.7s9.2-3.5,12.7,0l6.9,6.9v-18.5c0-5,4-9,9-9c5,0,9,4,9,9v18.5l6.9-6.9
	c3.5-3.5,9.2-3.5,12.7,0s3.5,9.2,0,12.7L268,165.1v29.4l26.2-13.3l8.6-26.5c1.5-4.7,6.6-7.3,11.3-5.8c4.7,1.5,7.3,6.6,5.8,11.3
	l-3,9.3l16.5-8.4c4.4-2.3,9.8-0.5,12.1,3.9c2.3,4.4,0.5,9.8-3.9,12.1l-16.5,8.4l9.3,3c4.7,1.5,7.3,6.6,5.8,11.3
	c-1.2,3.8-4.8,6.2-8.6,6.2c-0.9,0-1.9-0.1-2.8-0.4l-26.4-8.6l-23.5,12l23.5,12l26.5-8.6c4.7-1.5,9.8,1.1,11.3,5.8s-1.1,9.8-5.8,11.3
	l-9.3,3l16.5,8.4C346.3,243.1,348,248.6,345.8,253z"/>
<line class="st1" x1="346.9" y1="347" x2="346.9" y2="397.2"/>
<line class="st1" x1="324.7" y1="361" x2="369" y2="383.1"/>
<line class="st1" x1="369" y1="361" x2="324.7" y2="383.1"/>
<line class="st1" x1="290" y1="402.2" x2="290" y2="452.3"/>
<line class="st1" x1="267.9" y1="416.2" x2="312.2" y2="438.3"/>
<line class="st1" x1="312.2" y1="416.2" x2="267.9" y2="438.3"/>
<line class="st1" x1="226.6" y1="351.4" x2="226.6" y2="401.6"/>
<line class="st1" x1="204.5" y1="365.5" x2="248.8" y2="387.6"/>
<line class="st1" x1="248.8" y1="365.5" x2="204.5" y2="387.6"/>
<line class="st1" x1="185.2" y1="413.2" x2="185.2" y2="463.4"/>
<line class="st1" x1="163.1" y1="427.2" x2="207.4" y2="449.4"/>
<line class="st1" x1="207.4" y1="427.2" x2="163.1" y2="449.4"/>
<line class="st1" x1="133.1" y1="352.4" x2="133.1" y2="402.6"/>
<line class="st1" x1="111" y1="366.5" x2="155.3" y2="388.6"/>
<line class="st1" x1="155.3" y1="366.5" x2="111" y2="388.6"/>
</svg>
