<svg id="Layer_1" data-name="Layer 1" xmlns="http://www.w3.org/2000/svg" viewBox="0 0 512 512"><defs><style>.cls-1{fill:none;stroke:#fff;stroke-linecap:round;stroke-linejoin:round;stroke-width:18px;fill-rule:evenodd;}</style></defs><title>010 Breezy</title><path class="cls-1" d="M50.81,210.4C92.6,185,163.55,165.61,232.6,191.62c35.33,13.31,56.59,13.07,72.18-8.07,11.38-15.43,10.59-36.91-3.86-49.52-14.77-12.89-35.1-10.31-43.22,1.7"/><path class="cls-1" d="M59.63,261.7a225.53,225.53,0,0,1,110.63-27.26C262.81,236.31,322,350,407.81,310.31c67-31,58.68-95.14,40.41-120.56-18.44-25.65-55.48-36.66-85.41-17.44"/><path class="cls-1" d="M74.06,315.6c97.75-49.3,147.33-12.06,173.75,8.7,42,33,0,83-32,53"/></svg>