<svg id="Layer_1" data-name="Layer 1" xmlns="http://www.w3.org/2000/svg" viewBox="0 0 512 512"><defs><style>.cls-1{fill:none;stroke:#fff;stroke-linecap:round;stroke-linejoin:round;stroke-width:18px;}</style></defs><title>014 Snow</title><line class="cls-1" x1="256" y1="147" x2="256" y2="365"/><polyline class="cls-1" points="306.91 96 256 146.91 205.09 96"/><polyline class="cls-1" points="306.91 96 256 146.91 205.09 96"/><line class="cls-1" x1="256" y1="55" x2="256" y2="99"/><polyline class="cls-1" points="205.09 416 256 365.09 306.91 416"/><polyline class="cls-1" points="205.09 416 256 365.09 306.91 416"/><line class="cls-1" x1="256" y1="457" x2="256" y2="413"/><line class="cls-1" x1="158.88" y1="206.52" x2="353.12" y2="305.48"/><polyline class="cls-1" points="136.55 138 158.8 206.47 90.33 228.72"/><polyline class="cls-1" points="136.55 138 158.8 206.47 90.33 228.72"/><line class="cls-1" x1="76.91" y1="164.75" x2="116.11" y2="184.72"/><polyline class="cls-1" points="375.45 374 353.2 305.52 421.67 283.28"/><polyline class="cls-1" points="375.45 374 353.2 305.52 421.67 283.28"/><line class="cls-1" x1="435.09" y1="347.25" x2="395.89" y2="327.28"/><line class="cls-1" x1="353.12" y1="206.52" x2="158.88" y2="305.48"/><polyline class="cls-1" points="421.67 228.72 353.2 206.47 375.45 138"/><polyline class="cls-1" points="421.67 228.72 353.2 206.47 375.45 138"/><line class="cls-1" x1="435.09" y1="164.75" x2="395.89" y2="184.72"/><polyline class="cls-1" points="90.33 283.28 158.8 305.52 136.55 374"/><polyline class="cls-1" points="90.33 283.28 158.8 305.52 136.55 374"/><line class="cls-1" x1="76.91" y1="347.25" x2="116.11" y2="327.28"/></svg>