<svg id="Layer_1" data-name="Layer 1" xmlns="http://www.w3.org/2000/svg" viewBox="0 0 512 512"><defs><style>.cls-1{fill:#fff;}.cls-2{fill:none;stroke:#fff;stroke-linecap:round;stroke-linejoin:round;stroke-width:18px;}</style></defs><title>018 Hail</title><path class="cls-1" d="M380.67,132.52H379A114.47,114.47,0,0,0,156,169.09c0,2.44.09,4.85.24,7.25A81,81,0,0,0,97.14,254.1h0a81,81,0,0,0,80.74,80.74H380.67c55.64,0,101.16-45.52,101.16-101.16h0C481.82,178,436.3,132.52,380.67,132.52Z"/><line class="cls-2" x1="153.65" y1="368.08" x2="72.8" y2="449.18"/><line class="cls-2" x1="259.21" y1="364.4" x2="193.43" y2="430.18"/><line class="cls-2" x1="356.57" y1="368.68" x2="295.07" y2="430.18"/><line class="cls-2" x1="88.24" y1="333.06" x2="37.9" y2="383.4"/><circle class="cls-2" cx="72.44" cy="449.29" r="8.07"/><circle class="cls-2" cx="38.25" cy="383.75" r="8.07"/><circle class="cls-2" cx="194.02" cy="430.3" r="8.07"/><circle class="cls-2" cx="294.71" cy="430.3" r="8.07"/><circle class="cls-2" cx="183.57" cy="387.55" r="8.07"/><circle class="cls-2" cx="103.79" cy="367.61" r="8.07"/><circle class="cls-2" cx="291.86" cy="379.95" r="8.07"/><circle class="cls-2" cx="134.66" cy="436.47" r="8.07"/></svg>