<svg id="Layer_1" data-name="Layer 1" xmlns="http://www.w3.org/2000/svg" viewBox="0 0 512 512"><defs><style>.cls-1,.cls-3{fill:none;stroke-linecap:round;stroke-linejoin:round;stroke-width:18px;}.cls-1{stroke:#ffe317;}.cls-2{fill:#ffe317;}.cls-3{stroke:#ccc;}</style></defs><title>021 Dust</title><line class="cls-1" x1="445.35" y1="242.92" x2="397.91" y2="242.92"/><line class="cls-1" x1="286.68" y1="131.33" x2="286.68" y2="84.59"/><line class="cls-1" x1="398.81" y1="130.89" x2="365.45" y2="164.24"/><line class="cls-1" x1="399.05" y1="355.04" x2="366.05" y2="322.04"/><line class="cls-1" x1="208.01" y1="164.49" x2="174.65" y2="131.14"/><path class="cls-2" d="M353.28,243.27a66.77,66.77,0,0,0-119.53-40.93l93.92,93.49A66.62,66.62,0,0,0,353.28,243.27Z"/><line class="cls-3" x1="337.27" y1="394.34" x2="343.77" y2="394.34"/><line class="cls-3" x1="310.76" y1="361.27" x2="317.27" y2="361.27"/><line class="cls-3" x1="274.69" y1="328.19" x2="281.19" y2="328.19"/><line class="cls-3" x1="287.16" y1="394.34" x2="293.67" y2="394.34"/><line class="cls-3" x1="269.15" y1="361.27" x2="275.66" y2="361.27"/><line class="cls-3" x1="235.18" y1="328.19" x2="241.68" y2="328.19"/><line class="cls-3" x1="218.61" y1="262.05" x2="212.11" y2="262.05"/><line class="cls-3" x1="243.03" y1="295.12" x2="249.53" y2="295.12"/><line class="cls-3" x1="217.54" y1="361.27" x2="224.05" y2="361.27"/><line class="cls-3" x1="295.61" y1="427.41" x2="302.11" y2="427.41"/><line class="cls-3" x1="185.67" y1="328.19" x2="192.17" y2="328.19"/><line class="cls-3" x1="173.46" y1="262.05" x2="166.96" y2="262.05"/><line class="cls-3" x1="175.94" y1="361.27" x2="182.44" y2="361.27"/><line class="cls-3" x1="231.74" y1="427.41" x2="238.24" y2="427.41"/><line class="cls-3" x1="205.4" y1="295.12" x2="211.9" y2="295.12"/><line class="cls-3" x1="196.85" y1="394.34" x2="203.36" y2="394.34"/><line class="cls-3" x1="136.16" y1="328.19" x2="142.66" y2="328.19"/><line class="cls-3" x1="118.31" y1="262.05" x2="111.8" y2="262.05"/><line class="cls-3" x1="156.75" y1="394.34" x2="163.25" y2="394.34"/><line class="cls-3" x1="197.87" y1="427.41" x2="204.38" y2="427.41"/><line class="cls-3" x1="147.77" y1="295.12" x2="154.28" y2="295.12"/><line class="cls-3" x1="102.72" y1="361.27" x2="109.22" y2="361.27"/><line class="cls-3" x1="96.65" y1="328.19" x2="103.15" y2="328.19"/><line class="cls-3" x1="73.15" y1="262.05" x2="66.65" y2="262.05"/><line class="cls-3" x1="110.14" y1="295.12" x2="116.65" y2="295.12"/><line class="cls-3" x1="86.65" y1="394.34" x2="93.15" y2="394.34"/><line class="cls-3" x1="130.14" y1="427.41" x2="136.65" y2="427.41"/><line class="cls-3" x1="136.96" y1="196.34" x2="143.46" y2="196.34"/><line class="cls-3" x1="174.81" y1="229.41" x2="181.31" y2="229.41"/><line class="cls-3" x1="132.47" y1="229.41" x2="138.98" y2="229.41"/><line class="cls-3" x1="93.09" y1="196.34" x2="99.59" y2="196.34"/><line class="cls-3" x1="90.14" y1="229.41" x2="96.65" y2="229.41"/></svg>