<svg id="Layer_1" data-name="Layer 1" xmlns="http://www.w3.org/2000/svg" viewBox="0 0 512 512"><defs><style>.cls-1,.cls-4{fill:none;stroke-linecap:round;stroke-linejoin:round;stroke-width:18px;}.cls-1{stroke:#ffe317;}.cls-2{fill:#ffe317;}.cls-3{fill:#fff;}.cls-4{stroke:#5dc8ed;}</style></defs><title>023 Scattered Showers</title><line class="cls-1" x1="51.2" y1="190.05" x2="94.87" y2="190.05"/><line class="cls-1" x1="197.25" y1="87.35" x2="197.25" y2="44.33"/><line class="cls-1" x1="94.04" y1="86.94" x2="124.74" y2="117.64"/><line class="cls-1" x1="93.81" y1="293.25" x2="124.19" y2="262.88"/><line class="cls-1" x1="269.66" y1="117.87" x2="300.35" y2="87.17"/><path class="cls-2" d="M255.12,169.2A61.46,61.46,0,1,0,190,251.37,104.08,104.08,0,0,1,255.12,169.2Z"/><path class="cls-3" d="M438.4,266a75.57,75.57,0,0,0-53.71-22.33h-1.47a8.28,8.28,0,0,1-7.85-5.63,87.15,87.15,0,0,0-82.65-59.29h-.06A87.19,87.19,0,0,0,205.51,266c0,1.78.06,3.59.18,5.53a8.28,8.28,0,0,1-6,8.5,59.34,59.34,0,0,0-43.24,56.93,59.28,59.28,0,0,0,59.08,59h0l169.2-.11A76,76,0,0,0,438.4,266Z"/><line class="cls-4" x1="269.9" y1="422.09" x2="224.32" y2="467.67"/><line class="cls-4" x1="215.82" y1="422.09" x2="170.24" y2="467.67"/><line class="cls-4" x1="323.98" y1="422.09" x2="278.4" y2="467.67"/><line class="cls-4" x1="378.06" y1="422.09" x2="332.48" y2="467.67"/></svg>