<svg id="Layer_1" data-name="Layer 1" xmlns="http://www.w3.org/2000/svg" viewBox="0 0 512 512"><defs><style>.cls-1{fill:#fff;}.cls-2,.cls-3{fill:none;stroke-linecap:round;stroke-linejoin:round;stroke-width:18px;}.cls-2{stroke:#5dc8ed;}.cls-3{stroke:#666;}</style></defs><title>024 Sleet</title><path class="cls-1" d="M346.82,148h-1.69a114,114,0,0,0-222,36.42c0,2.43.08,4.84.23,7.23a80.71,80.71,0,0,0-58.89,77.44h0a80.65,80.65,0,0,0,80.41,80.41h202c55.41,0,100.75-45.34,100.75-100.75h0C447.56,193.31,402.23,148,346.82,148Z"/><line class="cls-2" x1="206.82" y1="383.13" x2="148.36" y2="441.59"/><line class="cls-2" x1="137.45" y1="383.13" x2="78.98" y2="441.59"/><line class="cls-2" x1="276.2" y1="383.13" x2="217.73" y2="441.59"/><line class="cls-2" x1="345.57" y1="383.13" x2="287.1" y2="441.59"/><line class="cls-3" x1="255.05" y1="175.91" x2="255.05" y2="274.4"/><polyline class="cls-3" points="278.05 152.88 255.05 175.88 232.06 152.88"/><polyline class="cls-3" points="278.05 152.88 255.05 175.88 232.06 152.88"/><line class="cls-3" x1="255.05" y1="134.35" x2="255.05" y2="154.23"/><polyline class="cls-3" points="232.06 297.44 255.05 274.44 278.05 297.44"/><polyline class="cls-3" points="232.06 297.44 255.05 274.44 278.05 297.44"/><line class="cls-3" x1="255.05" y1="315.96" x2="255.05" y2="296.08"/><line class="cls-3" x1="211.18" y1="202.8" x2="298.93" y2="247.51"/><polyline class="cls-3" points="201.09 171.85 211.15 202.78 180.21 212.83"/><polyline class="cls-3" points="201.09 171.85 211.15 202.78 180.21 212.83"/><line class="cls-3" x1="174.15" y1="183.93" x2="191.86" y2="192.96"/><polyline class="cls-3" points="309.01 278.46 298.96 247.53 329.9 237.48"/><polyline class="cls-3" points="309.01 278.46 298.96 247.53 329.9 237.48"/><line class="cls-3" x1="335.96" y1="266.38" x2="318.25" y2="257.35"/><line class="cls-3" x1="298.93" y1="202.8" x2="211.18" y2="247.51"/><polyline class="cls-3" points="329.9 212.83 298.96 202.78 309.01 171.85"/><polyline class="cls-3" points="329.9 212.83 298.96 202.78 309.01 171.85"/><line class="cls-3" x1="335.96" y1="183.93" x2="318.25" y2="192.96"/><polyline class="cls-3" points="180.21 237.48 211.15 247.53 201.09 278.46"/><polyline class="cls-3" points="180.21 237.48 211.15 247.53 201.09 278.46"/><line class="cls-3" x1="174.15" y1="266.38" x2="191.86" y2="257.35"/></svg>