<svg id="Layer_1" data-name="Layer 1" xmlns="http://www.w3.org/2000/svg" viewBox="0 0 512 512"><defs><style>.cls-1{fill:#fff;}.cls-2{fill:none;stroke:#fff;stroke-linecap:round;stroke-linejoin:round;stroke-width:18px;}.cls-3{fill:#5dc8ed;}</style></defs><title>025 Ice</title><path class="cls-1" d="M156.27,73.79A41.38,41.38,0,0,1,197.53,115V297.46a82.77,82.77,0,1,1-82.52,0V115a41.38,41.38,0,0,1,41.26-41.26m0-18A59.33,59.33,0,0,0,97,115V287.72a100.8,100.8,0,1,0,118.52,0V115a59.33,59.33,0,0,0-59.26-59.26Z"/><line class="cls-2" x1="284.21" y1="139.26" x2="284.21" y2="327.08"/><polyline class="cls-2" points="328.07 95.33 284.21 139.19 240.34 95.33"/><polyline class="cls-2" points="328.07 95.33 284.21 139.19 240.34 95.33"/><line class="cls-2" x1="284.21" y1="60" x2="284.21" y2="97.91"/><polyline class="cls-2" points="271.28 340.86 284.21 327.15 328.07 371.01"/><line class="cls-2" x1="284.21" y1="406.34" x2="284.21" y2="368.43"/><line class="cls-2" x1="237.68" y1="209.91" x2="367.88" y2="275.8"/><polyline class="cls-2" points="387.11 334.83 367.95 275.84 426.94 256.67"/><polyline class="cls-2" points="387.11 334.83 367.95 275.84 426.94 256.67"/><line class="cls-2" x1="438.5" y1="311.79" x2="404.72" y2="294.58"/><line class="cls-2" x1="367.88" y1="190.54" x2="237.68" y2="257.29"/><polyline class="cls-2" points="426.94 209.67 367.95 190.5 387.11 131.51"/><polyline class="cls-2" points="426.94 209.67 367.95 190.5 387.11 131.51"/><line class="cls-2" x1="438.5" y1="154.55" x2="404.72" y2="171.76"/><path class="cls-3" d="M175.45,328.71a13,13,0,0,1-7.54-11.79V278.09a11.65,11.65,0,0,0-11.61-11.61h0a11.65,11.65,0,0,0-11.61,11.61v38.8a13,13,0,0,1-7.55,11.8,46.24,46.24,0,1,0,38.31,0Z"/></svg>