<svg id="Layer_1" data-name="Layer 1" xmlns="http://www.w3.org/2000/svg" viewBox="0 0 512 512"><defs><style>.cls-1,.cls-3{fill:none;stroke-linecap:round;stroke-linejoin:round;stroke-width:18px;}.cls-1{stroke:#ffe317;}.cls-2{fill:#ffe317;}.cls-3{stroke:#fff;}</style></defs><title>026 Haze</title><line class="cls-1" x1="381.16" y1="138.77" x2="343.36" y2="176.57"/><line class="cls-1" x1="165.84" y1="176.29" x2="128.59" y2="139.05"/><line class="cls-1" x1="254.82" y1="86.6" x2="254.82" y2="139.75"/><line class="cls-1" x1="433.61" y1="265" x2="381.02" y2="265"/><line class="cls-1" x1="129.57" y1="265.4" x2="76.43" y2="265.4"/><path class="cls-2" d="M308.08,212.42A75.24,75.24,0,0,0,180.24,275l149.32-.35A75.07,75.07,0,0,0,308.08,212.42Z"/><line class="cls-1" x1="349.57" y1="325.4" x2="162.43" y2="325.4"/><line class="cls-3" x1="474.57" y1="325.4" x2="387.43" y2="325.4"/><line class="cls-3" x1="124.57" y1="325.4" x2="37.43" y2="325.4"/><line class="cls-1" x1="309.57" y1="375.4" x2="202.43" y2="375.4"/><line class="cls-3" x1="474.57" y1="375.4" x2="347.43" y2="375.4"/><line class="cls-3" x1="164.57" y1="375.4" x2="37.43" y2="375.4"/><line class="cls-3" x1="474.57" y1="425.4" x2="37.43" y2="425.4"/></svg>