<svg id="Layer_1" data-name="Layer 1" xmlns="http://www.w3.org/2000/svg" viewBox="0 0 512 512"><defs><style>.cls-1{fill:#fff;}</style></defs><title>027 Smoke</title><path class="cls-1" d="M188.34,175.18A98,98,0,0,1,294,190.82,91.57,91.57,0,0,1,411.6,214.68,106.75,106.75,0,0,1,453,239.26q1.12-1.6,2.16-3.24.83-1.31,1.61-2.65,1.34-2.3,2.54-4.68a84.35,84.35,0,0,0,8-25.15,86,86,0,0,0,0-25.89,84.35,84.35,0,0,0-8-25.15q-1.2-2.39-2.54-4.68-.78-1.34-1.61-2.65-1.31-2.07-2.73-4-1-1.42-2.1-2.8a85.48,85.48,0,0,0-9.85-10.65c-1.45-1.32-3-2.57-4.5-3.78q-1.83-1.45-3.75-2.8-1.35-.95-2.73-1.85-2.14-1.39-4.36-2.65-1.26-.71-2.54-1.38a83.86,83.86,0,0,0-39.27-9.62q-4.17,0-8.24.39a84.72,84.72,0,0,0-11.93,2q-1.94.47-3.85,1a84.9,84.9,0,0,0-33.63,19.1,79.85,79.85,0,0,0-95,6.92q-2.42,2.09-4.67,4.36t-4.31,4.72h-3.34a73.49,73.49,0,0,0-103.73,13,103,103,0,0,1,73.73,18Z"/><path class="cls-1" d="M98,254.67a95.69,95.69,0,0,1,15-9.91h0a95.39,95.39,0,0,1,92.14,1.54A102.13,102.13,0,0,1,316.3,229.78a107,107,0,0,1,62.61-20.14l1.46,0-.13-.09q-2.94-2-6.07-3.69A73.25,73.25,0,0,0,339.1,197q-1.61,0-3.2.07a73.34,73.34,0,0,0-18.36,3.15q-1.46.45-2.9,1-2.87,1-5.63,2.25t-5.39,2.69a73.77,73.77,0,0,0-10,6.61h-3.34a80.4,80.4,0,0,0-17.51-15.49Q271,196,269.16,195q-.93-.54-1.87-1.05a79.49,79.49,0,0,0-7.79-3.7c-1.16-.48-2.33-.92-3.52-1.34-.86-.31-1.73-.61-2.61-.89q-1-.33-2.09-.63c-.84-.24-1.68-.46-2.53-.68-1.28-.32-2.58-.62-3.88-.88a80.17,80.17,0,0,0-58.51,10.9q-2.84-2.62-5.91-5a85,85,0,0,0-119.31,15.9c-.42.54-.82,1.1-1.22,1.65q-1.62,2.24-3.1,4.58-.86,1.36-1.66,2.75Q54,218.53,53,220.52a84.79,84.79,0,0,0-9.3,38.64,85.66,85.66,0,0,0,1,12.94,83.38,83.38,0,0,0,8.64,26.33q.67,1.28,1.38,2.54,1.26,2.22,2.65,4.36.9,1.39,1.85,2.73,1.35,1.91,2.8,3.75c.5.63,1,1.26,1.51,1.87A95.42,95.42,0,0,1,98,254.67Z"/><path class="cls-1" d="M462.09,284.25q-1.2-3-2.61-6-.94-2-2-3.85-1.55-2.85-3.29-5.57c-.48-.75-1-1.5-1.49-2.24a89.79,89.79,0,0,0-6.23-8.08q-2.56-3-5.37-5.67h0a89.75,89.75,0,0,0-15.4-12,89.28,89.28,0,0,0-87.44-3.5q-3.66,1.87-7.11,4.06a89.76,89.76,0,0,0-9.85,7.22q-1.56,1.31-3,2.69a84,84,0,0,0-7.57-4.28q-2.6-1.3-5.31-2.42a84.18,84.18,0,0,0-79.9,8.49q-.92.64-1.83,1.3-1.81,1.33-3.55,2.75a84.63,84.63,0,0,0-11.17,11h-3.52a77.51,77.51,0,0,0-13.28-8.42q-2.83-1.41-5.79-2.6a77.31,77.31,0,0,0-76.64,11.14,77.76,77.76,0,0,0-18.25,20.6q-1.94,3.19-3.57,6.58-.82,1.69-1.55,3.43-1.47,3.47-2.6,7.11a77.16,77.16,0,0,0-3.38,19q-.1,2-.1,4v0a77.33,77.33,0,0,0,3.41,22.76c.06.2.11.39.17.59a76.84,76.84,0,0,0,3.57,9.19q1.38,3,3,5.79.81,1.41,1.67,2.79,1.73,2.75,3.68,5.34t4.1,5q1.08,1.21,2.2,2.37a77.75,77.75,0,0,0,13.35,11q1.67,1.09,3.4,2.1a76.93,76.93,0,0,0,15.45,6.84c1.31.42,2.63.81,4,1.16q1.61.42,3.25.76a32.92,32.92,0,0,0,5.82,1.28,50.16,50.16,0,0,0,6.62.41h225a89.23,89.23,0,0,0,70.32-34.2q.66-.84,1.31-1.7,2.57-3.44,4.82-7.13.56-.92,1.1-1.86,1.08-1.87,2.06-3.8a88.83,88.83,0,0,0,5.08-12q1.05-3.12,1.88-6.33a89.94,89.94,0,0,0-1.88-51Q462.89,286.28,462.09,284.25Z"/></svg>