<?xml version="1.0" encoding="utf-8"?>
<!-- Generator: Adobe Illustrator 21.0.0, SVG Export Plug-In . SVG Version: 6.00 Build 0)  -->
<svg version="1.1" id="Layer_1" xmlns="http://www.w3.org/2000/svg" xmlns:xlink="http://www.w3.org/1999/xlink" x="0px" y="0px"
	 viewBox="0 0 512 512" style="enable-background:new 0 0 512 512;" xml:space="preserve">
<style type="text/css">
	.st0{clip-path:url(#SVGID_2_);}
	.st1{fill:#FFFFFF;}
	.st2{fill:none;stroke:#FFFFFF;stroke-width:18;stroke-linecap:round;stroke-linejoin:round;}
</style>
<title>3</title>
<g>
	<defs>
		<path id="SVGID_1_" d="M339.9,248.8c-1.5,3.1-4.7,5-8.1,5c-1.4,0-2.9-0.3-4.1-1l-16.7-8.6l3,9.5c1.5,4.8-1.3,9.9-6.1,11.4
			c-4.7,1.4-9.8-1.1-11.3-5.9l-8.7-26.9L261.3,219v29.8l20,20c3.6,3.6,3.6,9.3,0,12.9s-9.3,3.6-12.9,0l-7-7v18.8
			c0,5-4.1,9.1-9.1,9.1c-5,0-9.1-4.1-9.1-9.1v-18.8l-7,7c-1.7,1.7-4.1,2.7-6.5,2.6c-2.4,0-4.7-1-6.5-2.6c-3.5-3.6-3.5-9.3,0-12.9
			l20-20V219l-26.6,13.5l-8.7,26.8c-1.6,4.8-6.8,7.4-11.6,5.8c-4.7-1.6-7.3-6.6-5.9-11.3l3-9.5l-16.7,8.5c-1.3,0.7-2.7,1-4.1,1
			c-5,0-9.1-4.1-9.1-9.1c0-3.4,1.9-6.5,4.9-8.1l16.7-8.5l-9.4-3c-4.8-1.5-7.4-6.7-5.9-11.5c1.5-4.8,6.7-7.4,11.5-5.9l0,0l26.9,8.7
			l23.8-12.2l-23.8-12.2l-26.8,8.7c-4.7,1.7-10-0.8-11.6-5.5c-1.7-4.7,0.8-10,5.5-11.6c0.1-0.1,0.3-0.1,0.4-0.1l9.4-3l-16.7-8.5
			c-4.5-2.2-6.4-7.7-4.2-12.2c2.2-4.5,7.7-6.4,12.2-4.2c0.1,0.1,0.2,0.1,0.3,0.2l16.7,8.5l-3-9.4c-1.5-4.8,1.1-9.9,5.9-11.5
			c4.8-1.5,9.9,1.1,11.5,5.9l8.7,26.8l26.6,13.5v-29.8l-20-20c-3.5-3.6-3.5-9.3,0.1-12.9c3.6-3.5,9.3-3.5,12.9,0l7,7v-18.7
			c0-5,4.1-9.1,9.1-9.1c5,0,9.1,4.1,9.1,9.1v18.7l7-7c3.6-3.6,9.3-3.6,12.9,0c3.6,3.6,3.6,9.3,0,12.9l-20,20v29.8l26.5-13.6
			l8.7-26.9c1.5-4.8,6.7-7.4,11.4-5.9c4.8,1.5,7.4,6.7,5.9,11.4l-3,9.4l16.7-8.5c4.5-2.2,10-0.3,12.2,4.2c2.1,4.4,0.4,9.7-3.9,12
			l-16.7,8.6l9.4,3c4.7,1.7,7.2,6.9,5.5,11.6c-1.6,4.6-6.6,7.1-11.2,5.7l-26.8-8.7l-23.8,12.2l23.8,12.2l26.9-8.7
			c4.7-1.7,9.9,0.9,11.6,5.6s-0.9,9.9-5.6,11.6c-0.1,0.1-0.3,0.1-0.4,0.1l-9.4,3l16.7,8.5c4.5,2.1,6.5,7.4,4.4,11.9
			C340.1,248.6,340,248.7,339.9,248.8z M342.5,128.3h-1.6C321.1,69.7,257.6,38.1,199,57.9c-45.6,15.3-76.3,58.1-76.3,106.2
			c0,2.3,0.1,4.8,0.2,7.1c-42.1,11.6-66.7,55.2-55.1,97.2c9.5,34.3,40.7,58,76.3,57.9h198.5c54.4,0,99-44.6,99-99
			S396.9,128.3,342.5,128.3z"/>
	</defs>
	<clipPath id="SVGID_2_">
		<use xlink:href="#SVGID_1_"  style="overflow:visible;"/>
	</clipPath>
	<g class="st0">
		<rect x="-43" y="-56" class="st1" width="592.7" height="490.4"/>
	</g>
</g>
<line class="st2" x1="341.6" y1="344" x2="341.6" y2="394.9"/>
<line class="st2" x1="318.6" y1="358.2" x2="363.5" y2="380.6"/>
<line class="st2" x1="363.5" y1="358.2" x2="318.6" y2="380.6"/>
<line class="st2" x1="284" y1="400" x2="284" y2="450.8"/>
<line class="st2" x1="261" y1="414.2" x2="305.9" y2="436.6"/>
<line class="st2" x1="305.9" y1="414.2" x2="261" y2="436.6"/>
<line class="st2" x1="219.7" y1="348.5" x2="219.7" y2="399.4"/>
<line class="st2" x1="196.8" y1="362.8" x2="241.6" y2="385.2"/>
<line class="st2" x1="241.6" y1="362.8" x2="196.8" y2="385.2"/>
<line class="st2" x1="177.8" y1="411.1" x2="177.8" y2="462"/>
<line class="st2" x1="154.8" y1="425.3" x2="199.7" y2="447.8"/>
<line class="st2" x1="199.7" y1="425.3" x2="154.8" y2="447.8"/>
<line class="st2" x1="125" y1="349.5" x2="125" y2="400.4"/>
<line class="st2" x1="102" y1="363.8" x2="146.9" y2="386.2"/>
<line class="st2" x1="146.9" y1="363.8" x2="102" y2="386.2"/>
</svg>
