<svg id="Layer_1" data-name="Layer 1" xmlns="http://www.w3.org/2000/svg" viewBox="0 0 512 512"><defs><style>.cls-1{fill:#fff;}</style></defs><title>002 Partly Cloudy Night</title><path class="cls-1" d="M472.59,168.9a71,71,0,0,1-100-100,92.32,92.32,0,0,0-83.4,104,129.22,129.22,0,0,1,44.25,57.27,114.83,114.83,0,0,1,62.74,21.59A92.29,92.29,0,0,0,472.59,168.9Z"/><path class="cls-1" d="M101.41,277.59c0,2.28.08,4.6.23,7.08a9,9,0,0,1-6.56,9.23,76,76,0,0,0,20.33,149.2h213.5a97.5,97.5,0,0,0,0-195h-1.78A9,9,0,0,1,318.6,242a111.52,111.52,0,0,0-217.19,35.63Z"/></svg>