<svg id="Layer_1" data-name="Layer 1" xmlns="http://www.w3.org/2000/svg" viewBox="0 0 512 512"><defs><style>.cls-1{fill:#fff;}</style></defs><title>004 Clear Night</title><path class="cls-1" d="M372.91,244.5c0-20.37-21.73-42.09-42.09-42.09,20.37,0,42.09-21.73,42.09-42.09,0,20.37,21.73,42.09,42.09,42.09C394.63,202.41,372.91,224.14,372.91,244.5Z"/><path class="cls-1" d="M317.91,126.5c0-13.11-14-27.09-27.09-27.09,13.11,0,27.09-14,27.09-27.09,0,13.11,14,27.09,27.09,27.09C331.89,99.41,317.91,113.39,317.91,126.5Z"/><path class="cls-1" d="M213.47,193.13A125.37,125.37,0,0,1,242,113.32,163.49,163.49,0,1,0,419.18,290.5a125.9,125.9,0,0,1-205.71-97.37Z"/></svg>