<svg id="Layer_1" data-name="Layer 1" xmlns="http://www.w3.org/2000/svg" viewBox="0 0 512 512"><defs><style>.cls-1{fill:none;stroke:#ffe317;stroke-linecap:round;stroke-linejoin:round;stroke-width:18px;}.cls-2{fill:#ffe317;}.cls-3{fill:#fff;}</style></defs><title>006 Partly Cloudy</title><line class="cls-1" x1="33.49" y1="223.29" x2="80.93" y2="223.29"/><line class="cls-1" x1="192.16" y1="111.71" x2="192.16" y2="64.97"/><line class="cls-1" x1="80.04" y1="111.27" x2="113.39" y2="144.62"/><line class="cls-1" x1="79.79" y1="335.42" x2="112.79" y2="302.42"/><line class="cls-1" x1="270.84" y1="144.87" x2="304.19" y2="111.52"/><path class="cls-2" d="M255,200.64a66.78,66.78,0,1,0-70.79,89.27A113.08,113.08,0,0,1,255,200.64Z"/><path class="cls-3" d="M454.17,305.78a82.1,82.1,0,0,0-58.36-24.26h-1.6a9,9,0,0,1-8.53-6.12A94.69,94.69,0,0,0,295.9,211h-.06a94.73,94.73,0,0,0-94.69,94.81c0,1.94.07,3.9.2,6a9,9,0,0,1-6.55,9.23,64.47,64.47,0,0,0-47,61.85A64.4,64.4,0,0,0,212,447h0l183.83-.12a82.59,82.59,0,0,0,58.31-141.13Z"/></svg>