<svg id="Layer_1" data-name="Layer 1" xmlns="http://www.w3.org/2000/svg" viewBox="0 0 512 512"><defs><style>.cls-1{fill:#fff;}.cls-2{fill:#f22;}.cls-3{fill:#ffe317;stroke:#ffe317;stroke-linecap:round;stroke-linejoin:round;stroke-width:18px;}</style></defs><title>009 Hot</title><path class="cls-1" d="M148.29,84.38a39.5,39.5,0,0,1,39.38,39.38v174.1a79,79,0,1,1-78.76,0V123.76a39.5,39.5,0,0,1,39.38-39.38m0-18a57.44,57.44,0,0,0-57.38,57.38V288.15a97,97,0,1,0,114.76,0V123.76a57.44,57.44,0,0,0-57.38-57.38Z"/><path class="cls-2" d="M167.46,325.71a13,13,0,0,1-7.54-11.79V125.09a11.65,11.65,0,0,0-11.61-11.61h0a11.65,11.65,0,0,0-11.61,11.61v188.8a13,13,0,0,1-7.55,11.8,46.24,46.24,0,1,0,38.31,0Z"/><line class="cls-3" x1="406.4" y1="211.13" x2="455.42" y2="211.13"/><line class="cls-3" x1="286.46" y1="379.72" x2="286.46" y2="329.95"/><line class="cls-3" x1="286.84" y1="91.95" x2="286.84" y2="42.17"/><line class="cls-3" x1="371.09" y1="295.65" x2="405.86" y2="330.42"/><line class="cls-3" x1="370.61" y1="127.25" x2="406.12" y2="91.74"/><path class="cls-3" d="M287,282.24a71.1,71.1,0,1,0-49-122.61v103A70.84,70.84,0,0,0,287,282.24Z"/></svg>