<svg id="Layer_1" data-name="Layer 1" xmlns="http://www.w3.org/2000/svg" viewBox="0 0 512 512"><defs><style>.cls-1{fill:#fff;}.cls-2{fill:none;stroke:#5dc8ed;stroke-linecap:round;stroke-linejoin:round;stroke-width:18px;}</style></defs><title>011 Rain</title><path class="cls-1" d="M352,141.81h-1.78a120.52,120.52,0,0,0-234.72,38.5c0,2.57.09,5.11.25,7.64C80,198,53.5,230.94,53.5,269.81h0a85.25,85.25,0,0,0,85,85H352c58.58,0,106.5-47.92,106.5-106.5h0C458.5,189.74,410.58,141.81,352,141.81Z"/><line class="cls-2" x1="204.02" y1="390.38" x2="142.21" y2="452.19"/><line class="cls-2" x1="130.68" y1="390.38" x2="68.88" y2="452.19"/><line class="cls-2" x1="277.35" y1="390.38" x2="215.55" y2="452.19"/><line class="cls-2" x1="350.68" y1="390.38" x2="288.88" y2="452.19"/></svg>