<svg id="Layer_1" data-name="Layer 1" xmlns="http://www.w3.org/2000/svg" viewBox="0 0 512 512"><defs><style>.cls-1{fill:none;stroke:#5dc8ed;stroke-linecap:round;stroke-linejoin:round;stroke-width:18px;}.cls-2{fill:#fff;}</style></defs><title>013 Mix Rainfall</title><line class="cls-1" x1="118.93" y1="375.43" x2="76.25" y2="434.14"/><line class="cls-1" x1="158.25" y1="407.14" x2="114.25" y2="467.14"/><line class="cls-1" x1="307.25" y1="380.14" x2="263.25" y2="441.14"/><line class="cls-1" x1="367.93" y1="375.43" x2="338.25" y2="415.14"/><line class="cls-1" x1="64.93" y1="363.43" x2="46.25" y2="388.14"/><path class="cls-2" d="M359.25,126.86h-1.78a120.52,120.52,0,0,0-234.72,38.5c0,2.57.09,5.11.25,7.64-35.79,10-62.25,43-62.25,81.86a85.25,85.25,0,0,0,85,85h1.59l49.88-203.72h138l-41.77,107h92.3L311,339.86h48.21c58.58,0,106.5-47.92,106.5-106.5h0C465.75,174.78,417.83,126.86,359.25,126.86Z"/><polygon class="cls-2" points="258.54 266.11 301.3 157.14 218.69 157.14 173.76 340.14 235.87 340.14 185.25 463.14 338.65 266.11 258.54 266.11"/></svg>