<svg id="Layer_1" data-name="Layer 1" xmlns="http://www.w3.org/2000/svg" viewBox="0 0 512 512"><defs><style>.cls-1{fill:none;stroke:#ffe317;stroke-linecap:round;stroke-linejoin:round;stroke-width:18px;}.cls-2{fill:#ffe317;}.cls-3{fill:#fff;}</style></defs><title>015 Scattered Thundersorm</title><line class="cls-1" x1="49.2" y1="177.54" x2="92.8" y2="177.54"/><line class="cls-1" x1="195.03" y1="74.99" x2="195.03" y2="32.03"/><line class="cls-1" x1="91.98" y1="74.58" x2="122.63" y2="105.23"/><line class="cls-1" x1="91.75" y1="280.59" x2="122.08" y2="250.26"/><line class="cls-1" x1="267.33" y1="105.46" x2="297.99" y2="74.81"/><path class="cls-2" d="M252.82,156.72a61.37,61.37,0,1,0-65.06,82A103.93,103.93,0,0,1,252.82,156.72Z"/><path class="cls-3" d="M383,227.9h-1.34a90.34,90.34,0,0,0-175.94,28.86c0,1.92.07,3.83.19,5.73a63.7,63.7,0,0,0,17.06,125.08h1.19l37.39-152.71H365l-31.31,80.21h69.19l-56,72.5H383a80.07,80.07,0,0,0,79.83-79.83h0A80.07,80.07,0,0,0,383,227.9Z"/><polygon class="cls-3" points="307.48 332.27 339.53 250.59 277.61 250.59 243.93 387.77 290.48 387.77 252.54 479.97 367.52 332.27 307.48 332.27"/></svg>