<svg id="Layer_1" data-name="Layer 1" xmlns="http://www.w3.org/2000/svg" viewBox="0 0 512 512"><defs><style>.cls-1,.cls-2{fill:none;stroke:#fff;stroke-linecap:round;stroke-linejoin:round;stroke-width:18px;}.cls-1{fill-rule:evenodd;}</style></defs><title>019 Blowing Snow</title><path class="cls-1" d="M239.51,216.26c35.33,13.31,56.59,13.07,72.18-8.07,11.38-15.43,10.59-36.91-3.86-49.52-14.77-12.89-35.1-10.31-43.22,1.7"/><path class="cls-1" d="M220.93,268.1a198.68,198.68,0,0,1,20.33,9.2c59.71,30.9,109.1,87.42,173.46,57.64,67-31,58.68-95.14,40.41-120.56-18.44-25.65-55.48-36.66-85.41-17.44"/><path class="cls-1" d="M81,340.24c97.75-49.3,147.33-12.06,173.75,8.7,42,33,0,83-32,53"/><line class="cls-2" x1="128.91" y1="144.5" x2="128.91" y2="247.97"/><polyline class="cls-2" points="153.07 120.3 128.91 144.46 104.74 120.3"/><polyline class="cls-2" points="153.07 120.3 128.91 144.46 104.74 120.3"/><line class="cls-2" x1="128.91" y1="100.84" x2="128.91" y2="121.72"/><polyline class="cls-2" points="104.74 272.17 128.91 248.01 153.07 272.17"/><polyline class="cls-2" points="104.74 272.17 128.91 248.01 153.07 272.17"/><line class="cls-2" x1="128.91" y1="291.63" x2="128.91" y2="270.75"/><line class="cls-2" x1="82.81" y1="172.75" x2="175" y2="219.72"/><polyline class="cls-2" points="72.21 140.23 82.77 172.73 50.27 183.29"/><polyline class="cls-2" points="72.21 140.23 82.77 172.73 50.27 183.29"/><line class="cls-2" x1="43.91" y1="152.93" x2="62.51" y2="162.41"/><polyline class="cls-2" points="185.6 252.24 175.04 219.74 207.54 209.18"/><polyline class="cls-2" points="185.6 252.24 175.04 219.74 207.54 209.18"/><line class="cls-2" x1="213.91" y1="239.55" x2="195.3" y2="230.06"/><line class="cls-2" x1="175" y1="172.75" x2="82.81" y2="219.72"/><polyline class="cls-2" points="207.54 183.29 175.04 172.73 185.6 140.23"/><polyline class="cls-2" points="207.54 183.29 175.04 172.73 185.6 140.23"/><line class="cls-2" x1="213.91" y1="152.93" x2="195.3" y2="162.41"/><polyline class="cls-2" points="50.27 209.18 82.77 219.74 72.21 252.24"/><polyline class="cls-2" points="50.27 209.18 82.77 219.74 72.21 252.24"/><line class="cls-2" x1="43.91" y1="239.55" x2="62.51" y2="230.06"/></svg>