<svg id="Layer_1" data-name="Layer 1" xmlns="http://www.w3.org/2000/svg" viewBox="0 0 512 512"><defs><style>.cls-1{fill:#fff;}.cls-2{fill:none;stroke:#5dc8ed;stroke-linecap:round;stroke-linejoin:round;stroke-width:18px;}</style></defs><title>020 Drizzle</title><path class="cls-1" d="M373.43,154.45h-1.61a108.6,108.6,0,0,0-211.51,34.69c0,2.31.08,4.61.22,6.88a76.89,76.89,0,0,0-56.09,73.77h0a76.82,76.82,0,0,0,76.6,76.6H373.43c52.78,0,96-43.19,96-96h0C469.4,197.64,426.21,154.45,373.43,154.45Z"/><line class="cls-2" x1="121.23" y1="415" x2="104.78" y2="431.44"/><line class="cls-2" x1="158.17" y1="378.05" x2="141.73" y2="394.5"/><line class="cls-2" x1="104.1" y1="382.56" x2="87.66" y2="399"/><line class="cls-2" x1="227.56" y1="405.08" x2="211.11" y2="421.53"/><line class="cls-2" x1="174.39" y1="408.69" x2="157.95" y2="425.13"/><line class="cls-2" x1="211.34" y1="371.74" x2="194.89" y2="388.19"/><line class="cls-2" x1="323.98" y1="405.08" x2="307.54" y2="421.53"/><line class="cls-2" x1="270.81" y1="408.69" x2="254.37" y2="425.13"/><line class="cls-2" x1="307.76" y1="371.74" x2="291.32" y2="388.19"/><line class="cls-2" x1="59.05" y1="381.65" x2="42.6" y2="398.1"/><line class="cls-2" x1="95.99" y1="344.71" x2="79.55" y2="361.15"/><line class="cls-2" x1="364.53" y1="411.39" x2="348.09" y2="427.84"/><line class="cls-2" x1="401.48" y1="374.45" x2="385.03" y2="390.89"/></svg>