<?xml version="1.0" encoding="utf-8"?>
<!-- Generator: Adobe Illustrator 21.0.0, SVG Export Plug-In . SVG Version: 6.00 Build 0)  -->
<svg version="1.1" id="Layer_1" xmlns="http://www.w3.org/2000/svg" xmlns:xlink="http://www.w3.org/1999/xlink" x="0px" y="0px"
	 viewBox="0 0 512 512" style="enable-background:new 0 0 512 512;" xml:space="preserve">
<style type="text/css">
	.st0{fill:none;stroke:#5DC8ED;stroke-width:18;stroke-linecap:round;stroke-linejoin:round;}
	.st1{fill:#FFFFFF;}
</style>
<title>024 Sleet</title>
<line class="st0" x1="206.8" y1="383.1" x2="148.4" y2="441.6"/>
<line class="st0" x1="137.4" y1="383.1" x2="79" y2="441.6"/>
<line class="st0" x1="276.2" y1="383.1" x2="217.7" y2="441.6"/>
<line class="st0" x1="345.6" y1="383.1" x2="287.1" y2="441.6"/>
<path class="st1" d="M346.8,148h-1.7C325,88.4,260.3,56.3,200.6,76.5c-46.3,15.6-77.5,59.1-77.5,107.9c0,2.4,0.1,4.8,0.2,7.2
	c-34.7,9.8-58.8,41.4-58.9,77.4c0.1,44.4,36.1,80.3,80.4,80.4h202c55.4,0,100.8-45.3,100.8-100.8C447.6,193.3,402.2,148,346.8,148z
	 M332.7,204.3c4.7,1.5,7.3,6.6,5.8,11.3c-1.2,3.8-4.8,6.2-8.6,6.2c-0.9,0-1.9-0.1-2.8-0.4l-27.4-8.9l-24.9,12.7l24.9,12.7l27.4-8.9
	c4.7-1.5,9.8,1.1,11.3,5.8c1.5,4.7-1.1,9.8-5.8,11.3l-10.3,3.3l17.6,9c4.4,2.3,6.2,7.7,3.9,12.1c-1.6,3.1-4.7,4.9-8,4.9
	c-1.4,0-2.8-0.3-4.1-1l-17.6-9l3.3,10.3c1.5,4.7-1.1,9.8-5.8,11.3c-0.9,0.3-1.9,0.4-2.8,0.4c-3.8,0-7.3-2.4-8.6-6.2l-8.9-27.4
	l-27.5-14v30.9l20.4,20.4c3.5,3.5,3.5,9.2,0,12.7c-1.8,1.8-4.1,2.6-6.4,2.6s-4.6-0.9-6.4-2.6l-7.6-7.6V316c0,5-4,9-9,9s-9-4-9-9
	v-19.8l-7.6,7.6c-3.5,3.5-9.2,3.5-12.7,0c-3.5-3.5-3.5-9.2,0-12.7l20.4-20.4v-30.9l-27.5,14l-8.9,27.4c-1.2,3.8-4.8,6.2-8.6,6.2
	c-0.9,0-1.9-0.1-2.8-0.4c-4.7-1.5-7.3-6.6-5.8-11.3l3.3-10.3l-17.6,9c-1.3,0.7-2.7,1-4.1,1c-3.3,0-6.4-1.8-8-4.9
	c-2.3-4.4-0.5-9.8,3.9-12.1l17.6-9l-10.3-3.3c-4.7-1.5-7.3-6.6-5.8-11.3c1.5-4.7,6.6-7.3,11.3-5.8l27.4,8.9l24.9-12.7l-24.9-12.7
	l-27.4,8.9c-0.9,0.3-1.9,0.4-2.8,0.4c-3.8,0-7.3-2.4-8.6-6.2c-1.5-4.7,1.1-9.8,5.8-11.3l10.3-3.3l-17.6-9c-4.4-2.3-6.2-7.7-3.9-12.1
	c2.3-4.4,7.7-6.2,12.1-3.9l17.6,9l-3.3-10.3c-1.5-4.7,1-9.8,5.8-11.3c4.7-1.5,9.8,1,11.3,5.8l8.9,27.4l27.5,14v-30.9l-20.4-20.4
	c-3.5-3.5-3.5-9.2,0-12.7c3.5-3.5,9.2-3.5,12.7,0l7.6,7.6v-19.8c0-5,4-9,9-9s9,4,9,9v19.8l7.6-7.6c3.5-3.5,9.2-3.5,12.7,0
	c3.5,3.5,3.5,9.2,0,12.7L264,179.6v30.9l27.5-14l8.9-27.4c1.5-4.7,6.6-7.3,11.3-5.8c4.7,1.5,7.3,6.6,5.8,11.3l-3.3,10.3l17.6-9
	c4.4-2.3,9.8-0.5,12.1,3.9c2.3,4.4,0.5,9.8-3.9,12.1l-17.6,9L332.7,204.3z"/>
</svg>
